<mxfile host="app.diagrams.net" modified="2022-01-12T09:29:09.586Z" agent="5.0 (Windows)" etag="_qNRS8SrWbCQKzTFStk5" version="16.2.4" type="github">
  <diagram id="CDAJmA0LXV63_HxTfeJq" name="Page-1">
    <mxGraphModel dx="1422" dy="752" grid="0" gridSize="10" guides="1" tooltips="1" connect="1" arrows="1" fold="1" page="1" pageScale="1" pageWidth="827" pageHeight="1169" math="0" shadow="0">
      <root>
        <mxCell id="0" />
        <mxCell id="1" parent="0" />
        <mxCell id="zpwqcWFo2gh_l0C6MXeH-2" value="&lt;div style=&quot;font-size: 24px&quot;&gt;&lt;font style=&quot;font-size: 24px&quot;&gt;Client (Document owner) &lt;br&gt;&lt;/font&gt;&lt;/div&gt;" style="text;html=1;strokeColor=none;fillColor=none;align=center;verticalAlign=middle;whiteSpace=wrap;rounded=0;" parent="1" vertex="1">
          <mxGeometry x="95" y="60" width="285" height="30" as="geometry" />
        </mxCell>
        <mxCell id="zpwqcWFo2gh_l0C6MXeH-5" value="" style="rounded=0;whiteSpace=wrap;html=1;fontSize=24;" parent="1" vertex="1">
          <mxGeometry x="460" y="100" width="220" height="210" as="geometry" />
        </mxCell>
        <mxCell id="zpwqcWFo2gh_l0C6MXeH-6" value="Server" style="text;html=1;align=center;verticalAlign=middle;resizable=0;points=[];autosize=1;strokeColor=none;fillColor=none;fontSize=24;" parent="1" vertex="1">
          <mxGeometry x="525" y="60" width="90" height="30" as="geometry" />
        </mxCell>
        <mxCell id="zpwqcWFo2gh_l0C6MXeH-7" value="" style="rounded=0;whiteSpace=wrap;html=1;" parent="1" vertex="1">
          <mxGeometry x="90" y="97.18" width="250" height="210" as="geometry" />
        </mxCell>
        <mxCell id="zpwqcWFo2gh_l0C6MXeH-10" value="&lt;font style=&quot;font-size: 12px&quot;&gt;Lobby&lt;/font&gt;&lt;font style=&quot;font-size: 12px&quot;&gt; tuple space&lt;/font&gt;" style="ellipse;whiteSpace=wrap;html=1;fontSize=24;" parent="1" vertex="1">
          <mxGeometry x="540" y="228.75" width="120" height="51.25" as="geometry" />
        </mxCell>
        <mxCell id="zpwqcWFo2gh_l0C6MXeH-11" value="&lt;div style=&quot;font-size: 12px&quot;&gt;client tuple space&lt;/div&gt;" style="ellipse;whiteSpace=wrap;html=1;fontSize=24;" parent="1" vertex="1">
          <mxGeometry x="540" y="130" width="90" height="40" as="geometry" />
        </mxCell>
        <mxCell id="zpwqcWFo2gh_l0C6MXeH-14" style="edgeStyle=orthogonalEdgeStyle;rounded=0;orthogonalLoop=1;jettySize=auto;html=1;fontSize=12;startArrow=classic;startFill=1;" parent="1" source="zpwqcWFo2gh_l0C6MXeH-12" edge="1">
          <mxGeometry relative="1" as="geometry">
            <mxPoint x="215" y="200" as="targetPoint" />
          </mxGeometry>
        </mxCell>
        <mxCell id="zpwqcWFo2gh_l0C6MXeH-12" value="&lt;div&gt;Graphical user interface(editor)&lt;/div&gt;" style="shape=ext;double=1;rounded=1;whiteSpace=wrap;html=1;fontSize=12;" parent="1" vertex="1">
          <mxGeometry x="140" y="130" width="150" height="40" as="geometry" />
        </mxCell>
        <mxCell id="zpwqcWFo2gh_l0C6MXeH-21" value="" style="shape=partialRectangle;whiteSpace=wrap;html=1;bottom=1;right=1;left=1;top=0;fillColor=#FFFFFF;routingCenterX=-0.5;fontSize=12;" parent="1" vertex="1">
          <mxGeometry x="430" y="250" width="60" height="30" as="geometry" />
        </mxCell>
        <mxCell id="zpwqcWFo2gh_l0C6MXeH-24" value="" style="shape=partialRectangle;whiteSpace=wrap;html=1;bottom=1;right=1;left=1;top=0;fillColor=#FFFFFF;routingCenterX=-0.5;fontSize=12;rotation=-180;" parent="1" vertex="1">
          <mxGeometry x="430" y="190" width="60" height="24.37" as="geometry" />
        </mxCell>
        <mxCell id="zpwqcWFo2gh_l0C6MXeH-26" value="" style="shape=ext;double=1;rounded=0;whiteSpace=wrap;html=1;fontSize=12;strokeColor=#FFFFFF;fillColor=#FFFFFF;" parent="1" vertex="1">
          <mxGeometry x="450" y="200" width="20" height="60" as="geometry" />
        </mxCell>
        <mxCell id="zpwqcWFo2gh_l0C6MXeH-28" style="edgeStyle=orthogonalEdgeStyle;rounded=0;orthogonalLoop=1;jettySize=auto;html=1;entryX=0;entryY=0.5;entryDx=0;entryDy=0;fontSize=12;startArrow=classic;startFill=1;dashed=1;exitX=0.975;exitY=0.313;exitDx=0;exitDy=0;exitPerimeter=0;" parent="1" source="zpwqcWFo2gh_l0C6MXeH-32" target="zpwqcWFo2gh_l0C6MXeH-10" edge="1">
          <mxGeometry relative="1" as="geometry">
            <mxPoint x="290" y="220" as="sourcePoint" />
            <Array as="points">
              <mxPoint x="510" y="225" />
              <mxPoint x="510" y="254" />
            </Array>
          </mxGeometry>
        </mxCell>
        <mxCell id="zpwqcWFo2gh_l0C6MXeH-29" value="&lt;div style=&quot;font-size: 14px&quot;&gt;&lt;font style=&quot;font-size: 14px&quot;&gt;Gateway&lt;/font&gt;:&lt;/div&gt;&lt;div style=&quot;font-size: 12px&quot;&gt; tcp://localhost:35123/joinSpace?conn&lt;span style=&quot;color: #6a8759&quot;&gt;&lt;/span&gt;&lt;/div&gt;" style="text;strokeColor=none;fillColor=none;html=1;fontSize=24;fontStyle=1;verticalAlign=middle;align=center;" parent="1" vertex="1">
          <mxGeometry x="414" y="320" width="290" height="40" as="geometry" />
        </mxCell>
        <mxCell id="zpwqcWFo2gh_l0C6MXeH-32" value="&lt;div style=&quot;font-size: 12px&quot;&gt;lobby tuple space&lt;/div&gt;" style="ellipse;whiteSpace=wrap;html=1;fontSize=14;strokeColor=#000000;fillColor=none;dashed=1;" parent="1" vertex="1">
          <mxGeometry x="155" y="200" width="120" height="80" as="geometry" />
        </mxCell>
      </root>
    </mxGraphModel>
  </diagram>
</mxfile>
